<?xml version="1.0" encoding="UTF-8"?>
<svg version="1.1" xmlns="http://www.w3.org/2000/svg" width="484" height="515">
    <path d="M0 0 C2.30585112 0.01070791 4.61092066 0.00005626 6.91674805 -0.01269531 C30.63704328 -0.0372185 55.24943044 6.00403777 72.64135742 22.96386719 C73.37870117 23.72183594 74.11604492 24.47980469 74.87573242 25.26074219 C75.92180664 26.27587891 75.92180664 26.27587891 76.98901367 27.31152344 C85.5359282 36.14156556 90.50528877 49.33595932 92.87573242 61.26074219 C92.54573242 61.92074219 92.21573242 62.58074219 91.87573242 63.26074219 C85.7041652 64.99311193 79.46055746 65.70497281 73.10961914 66.43823242 C67.32250972 67.13546639 61.7009987 68.30921195 56.01635742 69.60058594 C51.97670427 70.44971701 47.98089878 70.85695533 43.87573242 71.26074219 C42.88573242 71.59074219 41.89573242 71.92074219 40.87573242 72.26074219 C39.89353615 70.49158743 38.91507883 68.7203565 37.93823242 66.94824219 C37.39295898 65.96210938 36.84768555 64.97597656 36.28588867 63.95996094 C34.87573242 61.26074219 34.87573242 61.26074219 33.87573242 58.26074219 C33.21573242 58.26074219 32.55573242 58.26074219 31.87573242 58.26074219 C31.87573242 57.60074219 31.87573242 56.94074219 31.87573242 56.26074219 C31.13709961 55.97199219 30.3984668 55.68324219 29.63745117 55.38574219 C28.01563873 54.72508875 26.40565452 54.03064669 24.83276367 53.26074219 C10.5609372 46.60575571 -7.26604483 46.78458276 -21.84692383 52.03027344 C-24.41568816 53.41819928 -25.46134768 54.90699503 -27.12426758 57.26074219 C-27.78426758 57.26074219 -28.44426758 57.26074219 -29.12426758 57.26074219 C-30.58477739 61.64227162 -30.70329636 65.68569994 -30.12426758 70.26074219 C-27.01706753 76.3600608 -22.11705991 77.8169734 -15.86645508 80.08496094 C-7.10944621 82.83638022 1.67674539 84.91146321 10.68823242 86.63574219 C46.62468683 93.72373144 46.62468683 93.72373144 60.87573242 100.26074219 C61.69428711 100.63328125 62.5128418 101.00582031 63.35620117 101.38964844 C67.44770558 103.3471224 71.25325443 105.54388369 74.87573242 108.26074219 C74.87573242 108.92074219 74.87573242 109.58074219 74.87573242 110.26074219 C75.76131836 110.65132812 75.76131836 110.65132812 76.66479492 111.04980469 C85.34143372 115.80202735 90.17697002 126.65993531 92.91479492 135.68652344 C94.8014007 143.6120309 95.38846849 151.14242117 94.87573242 159.26074219 C94.80612305 160.45570313 94.73651367 161.65066406 94.66479492 162.88183594 C93.40078116 176.37869403 87.80192022 189.83086378 77.87573242 199.26074219 C77.31885742 199.85886719 76.76198242 200.45699219 76.18823242 201.07324219 C74.87573242 202.26074219 74.87573242 202.26074219 72.87573242 202.26074219 C72.87573242 202.92074219 72.87573242 203.58074219 72.87573242 204.26074219 C50.12243665 224.13055577 17.34886164 226.97293462 -11.47973633 225.10839844 C-20.17468046 224.30905085 -28.6835039 222.44293437 -37.12426758 220.26074219 C-37.9621582 220.05835938 -38.80004883 219.85597656 -39.66333008 219.64746094 C-50.11790787 216.87205999 -61.87252961 211.31183045 -70.12426758 204.26074219 C-70.12426758 203.60074219 -70.12426758 202.94074219 -70.12426758 202.26074219 C-70.78426758 202.26074219 -71.44426758 202.26074219 -72.12426758 202.26074219 C-72.12426758 201.60074219 -72.12426758 200.94074219 -72.12426758 200.26074219 C-72.78426758 200.26074219 -73.44426758 200.26074219 -74.12426758 200.26074219 C-74.12426758 199.60074219 -74.12426758 198.94074219 -74.12426758 198.26074219 C-74.78426758 198.26074219 -75.44426758 198.26074219 -76.12426758 198.26074219 C-85.39053621 187.66551951 -93.30991637 174.7338014 -93.12426758 160.26074219 C-79.80098889 157.76753305 -66.47492699 155.29110655 -53.12426758 152.94824219 C-52.1586792 152.77711914 -51.19309082 152.60599609 -50.19824219 152.4296875 C-49.30758057 152.27467773 -48.41691895 152.11966797 -47.49926758 151.95996094 C-46.72325195 151.82420654 -45.94723633 151.68845215 -45.14770508 151.54858398 C-43.12426758 151.26074219 -43.12426758 151.26074219 -40.12426758 151.26074219 C-37.12426758 157.88574219 -37.12426758 157.88574219 -37.12426758 161.26074219 C-36.46426758 161.26074219 -35.80426758 161.26074219 -35.12426758 161.26074219 C-33.68676758 162.75683594 -33.68676758 162.75683594 -32.12426758 164.69824219 C-29.97901714 167.41262457 -29.97901714 167.41262457 -27.12426758 169.26074219 C-27.12426758 169.92074219 -27.12426758 170.58074219 -27.12426758 171.26074219 C-26.56868164 171.38320313 -26.0130957 171.50566406 -25.44067383 171.63183594 C-23.12426758 172.26074219 -23.12426758 172.26074219 -20.83911133 173.23339844 C-7.43202649 178.49440641 11.21496126 179.0130924 24.75073242 174.01074219 C29.61425313 171.76604032 33.7159355 169.02043407 36.68823242 164.51074219 C38.92481395 158.38957169 38.28877218 153.29334158 35.87573242 147.26074219 C35.21573242 147.26074219 34.55573242 147.26074219 33.87573242 147.26074219 C33.87573242 146.60074219 33.87573242 145.94074219 33.87573242 145.26074219 C32.70010742 144.88949219 32.70010742 144.88949219 31.50073242 144.51074219 C28.6940453 143.54291904 26.03853076 142.48360575 23.31323242 141.32324219 C13.71266578 137.47160327 3.5590487 136.00737999 -6.59960938 134.38549805 C-11.67631689 133.55621785 -16.57036698 132.46203112 -21.50708008 130.99902344 C-24.42078205 130.17709855 -27.34864569 129.56767231 -30.31176758 128.94824219 C-38.22056848 127.15507731 -45.62839811 124.30797608 -53.12426758 121.26074219 C-53.91833008 120.94363281 -54.71239258 120.62652344 -55.53051758 120.29980469 C-65.70708163 115.75371665 -73.49872517 107.70857095 -79.12426758 98.26074219 C-79.52258789 97.60460937 -79.9209082 96.94847656 -80.33129883 96.27246094 C-88.27444465 81.90339939 -88.30976863 65.69477732 -84.12426758 50.26074219 C-82.68956461 45.8370747 -80.94863337 41.53682485 -79.12426758 37.26074219 C-78.46426758 37.26074219 -77.80426758 37.26074219 -77.12426758 37.26074219 C-77.01985352 36.68839844 -76.91543945 36.11605469 -76.80786133 35.52636719 C-76.01267259 32.89088451 -74.84525267 31.20042911 -73.18676758 29.01074219 C-72.66211914 28.30433594 -72.1374707 27.59792969 -71.59692383 26.87011719 C-71.11094727 26.33902344 -70.6249707 25.80792969 -70.12426758 25.26074219 C-69.46426758 25.26074219 -68.80426758 25.26074219 -68.12426758 25.26074219 C-67.79426758 24.27074219 -67.46426758 23.28074219 -67.12426758 22.26074219 C-61.8170629 17.26154492 -55.61213639 13.5100208 -49.12426758 10.26074219 C-48.26961914 9.82761719 -47.4149707 9.39449219 -46.53442383 8.94824219 C-39.90590031 5.75285639 -33.32464071 3.72968623 -26.12426758 2.26074219 C-25.39457764 2.09010254 -24.6648877 1.91946289 -23.91308594 1.74365234 C-15.95891349 0.04613854 -8.09149622 -0.0446238 0 0 Z "
          fill="#000" transform="translate(315.124267578125,86.7392578125)"/>
    <path d="M0 0 C-1.44077046 3.36179774 -3.24750021 5.59156268 -6 8 C-6.66 8 -7.32 8 -8 8 C-8.309375 8.61875 -8.61875 9.2375 -8.9375 9.875 C-9.625 11.25 -10.3125 12.625 -11 14 C-11.66 14 -12.32 14 -13 14 C-13.27199219 14.56847656 -13.54398438 15.13695313 -13.82421875 15.72265625 C-15.03105696 18.06015351 -16.39614051 20.2214019 -17.8125 22.4375 C-23.00287155 31.0415878 -26.03890702 40.19453511 -28 50 C-28.33 50.33 -28.66 50.66 -29 51 C-38.9 51 -48.8 51 -59 51 C-59 105.78 -59 160.56 -59 217 C-72.35291303 217 -85.61033864 216.99434082 -98.9375 216.5 C-100.32615917 216.45145801 -101.71483116 216.40328152 -103.10351562 216.35546875 C-106.40248845 216.24052196 -109.70125841 216.12134316 -113 216 C-113.95790674 206.84508108 -114.10818661 197.78984288 -114.02172852 188.59277344 C-114.01155995 187.08363648 -114.00186918 185.57449624 -113.99261475 184.06535339 C-113.96639141 180.00623022 -113.93356244 175.94718524 -113.89946485 171.8881216 C-113.86486347 167.63208643 -113.83645168 163.37600982 -113.80735779 159.11993408 C-113.75145234 151.07733155 -113.69005365 143.0347809 -113.62663645 134.99223447 C-113.54116827 124.11241109 -113.46427686 113.23252721 -113.38688183 102.35264397 C-113.26489002 85.23503848 -113.13151775 68.11754109 -113 51 C-135.77 51 -158.54 51 -182 51 C-184.25168338 43.11910818 -184.25168338 43.11910818 -184.23046875 39.0234375 C-184.22853516 38.10304687 -184.22660156 37.18265625 -184.22460938 36.234375 C-184.21236328 35.29078125 -184.20011719 34.3471875 -184.1875 33.375 C-184.18685547 32.48554687 -184.18621094 31.59609375 -184.18554688 30.6796875 C-184.14302994 23.80139288 -183.82618722 16.94149963 -183.48950195 10.07275391 C-183.44256447 9.10199417 -183.39562698 8.13123444 -183.34726715 7.13105774 C-183.23223066 4.75400263 -183.11645652 2.37698589 -183 0 C-159.58276335 -0.15382314 -136.16549634 -0.30185857 -112.74817944 -0.4429636 C-101.87563862 -0.50861357 -91.00311587 -0.57617268 -80.13061523 -0.64819336 C-70.65649702 -0.71094619 -61.18236448 -0.77015045 -51.70819741 -0.82505554 C-46.6895957 -0.85426449 -41.67101945 -0.88527609 -36.65245628 -0.92053413 C-31.93218372 -0.95364054 -27.21190673 -0.98201464 -22.49158287 -1.00670624 C-20.75610765 -1.01662826 -19.02064145 -1.02830248 -17.28519058 -1.04183006 C-14.92154576 -1.05999623 -12.5579497 -1.07194273 -10.19425964 -1.08229065 C-9.15681139 -1.09249633 -9.15681139 -1.09249633 -8.09840459 -1.10290819 C-5.1028507 -1.10997062 -2.86990097 -0.95663366 0 0 Z "
          fill="#000" transform="translate(247,92)"/>
    <path d="M0 0 C1.04929687 -0.01417969 2.09859375 -0.02835937 3.1796875 -0.04296875 C6.06047071 0.18245063 7.68740208 0.69785683 10.125 2.1875 C9.52549704 5.87016103 8.87741109 9.53293185 8.125 13.1875 C5.155 13.1875 2.185 13.1875 -0.875 13.1875 C-0.875 15.1675 -0.875 17.1475 -0.875 19.1875 C1.765 19.5175 4.405 19.8475 7.125 20.1875 C7.32073608 21.62390171 7.50627816 23.06169504 7.6875 24.5 C7.79191406 25.30050781 7.89632812 26.10101563 8.00390625 26.92578125 C8.125 29.1875 8.125 29.1875 7.125 32.1875 C4.485 32.5175 1.845 32.8475 -0.875 33.1875 C-1.205 45.0675 -1.535 56.9475 -1.875 69.1875 C-12.875 70.1875 -12.875 70.1875 -16.875 69.1875 C-16.875 56.9775 -16.875 44.7675 -16.875 32.1875 C-18.855 32.1875 -20.835 32.1875 -22.875 32.1875 C-23.37 30.7025 -23.37 30.7025 -23.875 29.1875 C-24.37 30.6725 -24.37 30.6725 -24.875 32.1875 C-29.825 32.6825 -29.825 32.6825 -34.875 33.1875 C-34.73462362 36.64613518 -34.5879541 40.10430137 -34.4375 43.5625 C-34.39818359 44.54734375 -34.35886719 45.5321875 -34.31835938 46.546875 C-34.27646484 47.48789062 -34.23457031 48.42890625 -34.19140625 49.3984375 C-34.13641968 50.70240479 -34.13641968 50.70240479 -34.08032227 52.03271484 C-34.00098456 54.2358262 -34.00098456 54.2358262 -32.875 56.1875 C-30.83466465 56.38181765 -28.79432344 56.57607488 -26.75390625 56.76953125 C-24.875 57.1875 -24.875 57.1875 -23.375 59.25 C-23.1275 60.2090625 -23.1275 60.2090625 -22.875 61.1875 C-23.205 61.5175 -23.535 61.8475 -23.875 62.1875 C-23.83375 63.156875 -23.7925 64.12625 -23.75 65.125 C-23.79125 66.135625 -23.8325 67.14625 -23.875 68.1875 C-28.55916401 71.31027601 -33.39134306 70.7684559 -38.875 70.1875 C-42.28374231 69.05125256 -45.00397455 67.56636714 -46.98046875 64.4375 C-51.0333877 54.24325844 -49.89858044 42.83826945 -48.875 32.1875 C-51.47966582 32.66407292 -54.08371714 33.14364719 -56.6875 33.625 C-57.42548828 33.75970703 -58.16347656 33.89441406 -58.92382812 34.03320312 C-61.98815076 34.60169737 -64.91428953 35.20059651 -67.875 36.1875 C-69.22227799 39.52083465 -69.06231503 43.11517839 -69.15625 46.66796875 C-69.19363281 47.91384766 -69.23101562 49.15972656 -69.26953125 50.44335938 C-69.34015789 53.07616347 -69.41046761 55.70897608 -69.48046875 58.34179688 C-69.51785156 59.58380859 -69.55523437 60.82582031 -69.59375 62.10546875 C-69.63918945 63.81899536 -69.63918945 63.81899536 -69.68554688 65.56713867 C-69.875 68.1875 -69.875 68.1875 -70.875 69.1875 C-73.06139453 69.26008946 -75.25000389 69.27123783 -77.4375 69.25 C-78.63503906 69.24097656 -79.83257812 69.23195313 -81.06640625 69.22265625 C-82.45666016 69.20525391 -82.45666016 69.20525391 -83.875 69.1875 C-85.17166891 64.24759526 -85.00124049 59.35912871 -84.97265625 54.29296875 C-84.9712413 53.34561356 -84.96982635 52.39825836 -84.96836853 51.42219543 C-84.96278611 48.40643105 -84.95023682 45.39074182 -84.9375 42.375 C-84.93248273 40.32617295 -84.92792022 38.27734473 -84.92382812 36.22851562 C-84.91282243 31.21481494 -84.89556988 26.2011702 -84.875 21.1875 C-80.255 20.8575 -75.635 20.5275 -70.875 20.1875 C-70.545 21.5075 -70.215 22.8275 -69.875 24.1875 C-69.04742187 23.53265625 -68.21984375 22.8778125 -67.3671875 22.203125 C-63.71329065 19.76719377 -60.28399837 19.72163962 -56 19.9375 C-55.31164062 19.95554687 -54.62328125 19.97359375 -53.9140625 19.9921875 C-52.2337619 20.03886252 -50.55418837 20.11059061 -48.875 20.1875 C-48.88660156 19.47722656 -48.89820313 18.76695312 -48.91015625 18.03515625 C-48.91917969 17.11605469 -48.92820313 16.19695312 -48.9375 15.25 C-48.94910156 14.33347656 -48.96070313 13.41695313 -48.97265625 12.47265625 C-48.875 10.1875 -48.875 10.1875 -47.875 9.1875 C-45.68860547 9.11491054 -43.49999611 9.10376217 -41.3125 9.125 C-39.51619141 9.13853516 -39.51619141 9.13853516 -37.68359375 9.15234375 C-36.75675781 9.16394531 -35.82992187 9.17554688 -34.875 9.1875 C-34.875 13.1475 -34.875 17.1075 -34.875 21.1875 C-28.935 20.8575 -22.995 20.5275 -16.875 20.1875 C-16.875 17.8775 -16.875 15.5675 -16.875 13.1875 C-15.05198367 7.31333628 -12.70861931 4.68416077 -7.875 1.1875 C-5.17835792 -0.16082104 -3.00912479 0.01839318 0 0 Z M-23.875 23.1875 C-23.875 24.8375 -23.875 26.4875 -23.875 28.1875 C-23.545 28.1875 -23.215 28.1875 -22.875 28.1875 C-22.875 26.5375 -22.875 24.8875 -22.875 23.1875 C-23.205 23.1875 -23.535 23.1875 -23.875 23.1875 Z "
          fill="#000" transform="translate(261.875,326.8125)"/>
    <path d="M0 0 C1.83884766 -0.01836914 1.83884766 -0.01836914 3.71484375 -0.03710938 C11.55467619 -0.04957995 18.94218583 0.61912538 26.625 2.1875 C26.625 2.8475 26.625 3.5075 26.625 4.1875 C29.1 5.1775 29.1 5.1775 31.625 6.1875 C31.625 6.8475 31.625 7.5075 31.625 8.1875 C32.285 8.1875 32.945 8.1875 33.625 8.1875 C37.52203298 15.07689758 38.80260695 21.3128935 37.625 29.1875 C35.93460134 34.43133243 33.87326729 38.14727726 29.625 41.6875 C28.635 42.1825 27.645 42.6775 26.625 43.1875 C25.861875 43.579375 25.09875 43.97125 24.3125 44.375 C16.41394361 46.76293565 8.73440003 46.07939679 0.625 45.1875 C0.64820312 46.1053125 0.67140625 47.023125 0.6953125 47.96875 C0.79512115 54.75573816 0.69881488 60.7068285 -1.375 67.1875 C-3.5212026 67.04720581 -5.66696218 66.90011836 -7.8125 66.75 C-9.60494141 66.62818359 -9.60494141 66.62818359 -11.43359375 66.50390625 C-14.375 66.1875 -14.375 66.1875 -15.375 65.1875 C-15.46905142 63.1931827 -15.49243249 61.19550457 -15.48852539 59.19897461 C-15.48844986 57.91772202 -15.48837433 56.63646942 -15.48829651 55.31639099 C-15.48318909 53.90754152 -15.47797309 52.49869244 -15.47265625 51.08984375 C-15.47079202 49.65637766 -15.46936814 48.22291093 -15.46836853 46.78944397 C-15.46454372 43.00990043 -15.45471377 39.2303951 -15.44366455 35.4508667 C-15.43344963 31.59680702 -15.42887074 27.74274118 -15.42382812 23.88867188 C-15.41309146 16.32159713 -15.39601549 8.75455391 -15.375 1.1875 C-10.93920016 -1.03039992 -4.86915942 0.00248173 0 0 Z M-0.375 13.1875 C-0.375 19.4575 -0.375 25.7275 -0.375 32.1875 C3.9253125 32.31125 3.9253125 32.31125 8.3125 32.4375 C9.65380981 32.49212402 9.65380981 32.49212402 11.0222168 32.54785156 C14.97660537 32.60284138 17.16301811 32.45140493 20.66796875 30.44921875 C23.41110603 27.27900621 23.34080551 25.42027097 23.12109375 21.37890625 C22.32716706 17.87187574 20.43910129 16.28171491 17.625 14.1875 C14.00418537 12.98056179 10.6999281 13.07967921 6.9375 13.125 C4.524375 13.145625 2.11125 13.16625 -0.375 13.1875 Z "
          fill="#000" transform="translate(81.375,329.8125)"/>
    <path d="M0 0 C0 0.66 0 1.32 0 2 C0.66 2 1.32 2 2 2 C2 2.66 2 3.32 2 4 C2.66 4 3.32 4 4 4 C8.38859526 11.4057545 8.99695189 18.51593945 8 27 C6.85713093 30.88925342 5.54436886 34.13199706 1.859375 36.203125 C0.93898438 36.59757812 0.93898438 36.59757812 0 37 C0 37.66 0 38.32 0 39 C-0.66 39 -1.32 39 -2 39 C-2 39.66 -2 40.32 -2 41 C-9.56004606 45.27638969 -16.79069409 46.35211016 -25.33203125 44.4921875 C-32.67232733 42.05010047 -37.52523649 37.46313431 -41.015625 30.65234375 C-43.5684023 23.77402713 -43.94161216 16.56932549 -41.5 9.625 C-38.65061134 3.62371908 -34.5318688 -1.1186913 -28.4375 -3.9375 C-18.33580283 -7.05627641 -8.77228032 -5.65953569 0 0 Z M-21 7 C-21 7.66 -21 8.32 -21 9 C-21.8971875 9.0928125 -21.8971875 9.0928125 -22.8125 9.1875 C-26.42558453 10.52950283 -27.35516837 13.71033675 -29 17 C-29.65160695 22.60381974 -28.11549729 25.49983724 -25 30 C-22.072087 32.40507139 -18.70889093 32.47128787 -14.96875 32.39453125 C-11.61306974 31.72206358 -10.04063604 29.59717314 -8 27 C-6.14620134 23.29240268 -6.54076132 19.04626515 -7 15 C-8.99657127 11.14455202 -10.39707638 9.40194908 -14 7 C-16.33199388 6.92094936 -18.66832622 6.91201231 -21 7 Z "
          fill="#000" transform="translate(164,352)"/>
    <path d="M0 0 C2.9375 2.0625 2.9375 2.0625 5 4 C5 4.66 5 5.32 5 6 C5.66 6 6.32 6 7 6 C11.26896971 12.49625826 11.45689082 20.54810046 10.6796875 28.12109375 C9.0842524 34.87877 4.52057297 40.40279095 -1.296875 44.0703125 C-7.78029466 47.6094269 -15.26246024 48.25518016 -22.41796875 46.359375 C-25.02226804 45.39165723 -27.51581206 44.24209397 -30 43 C-30 42.34 -30 41.68 -30 41 C-30.90492188 40.61521484 -30.90492188 40.61521484 -31.828125 40.22265625 C-35.9524739 37.90085552 -37.56475326 34.40785264 -39 30 C-39.41404103 27.12024133 -39.53106719 24.28222051 -39.5625 21.375 C-39.57700195 20.65884521 -39.59150391 19.94269043 -39.60644531 19.20483398 C-39.48090208 12.56099401 -36.93246285 7.54263845 -32.25 2.75 C-23.93146394 -4.95082298 -9.61554289 -5.72840853 0 0 Z M-23 13 C-25.70545185 17.48685853 -25.86656205 21.90211693 -25 27 C-23.54688773 30.12170506 -21.90821094 32.14230607 -19 34 C-14.45929582 35.15509142 -11.13533804 34.62805934 -7.0625 32.375 C-3.98173018 28.82744687 -3.21160299 25.65755676 -2.625 21.0625 C-3.15183571 16.76000839 -4.47328164 14.55106364 -7 11 C-12.95664302 7.39466343 -18.15861683 8.15861683 -23 13 Z "
          fill="#000" transform="translate(309,350)"/>
    <path d="M0 0 C0.99 0.66 1.98 1.32 3 2 C3 2.66 3 3.32 3 4 C3.66 4 4.32 4 5 4 C9.97361981 12.1303084 12.5409264 20.46818421 10.296875 29.98046875 C7.94849916 36.43850232 7.94849916 36.43850232 4.85546875 38.26953125 C4.24316406 38.51058594 3.63085938 38.75164062 3 39 C3 39.66 3 40.32 3 41 C2.34 41 1.68 41 1 41 C1 41.66 1 42.32 1 43 C-6.80615126 46.86853514 -14.74964987 48.96109979 -23.328125 46.26953125 C-29.46438953 43.40047627 -35.09603967 39.2435147 -38 33 C-40.92005367 24.31329947 -40.53189004 16.46819304 -37 8 C-35.49688128 5.61297185 -34.04394565 3.99153679 -32 2 C-31.34 2 -30.68 2 -30 2 C-30 1.34 -30 0.68 -30 0 C-18.6723702 -5.19956778 -11.47281748 -4.65711406 0 0 Z M-24 14 C-25.88596747 18.02911233 -26.5526053 21.57915761 -26 26 C-23.96006092 29.6578218 -22.49580738 31.66946174 -19 34 C-15.93473649 34.54531842 -13.06591671 34.54325893 -10 34 C-7.24430553 31.81840855 -5.56411253 30.12822506 -4 27 C-3.49463293 21.85519754 -3.13530736 17.46103239 -5.8125 12.9375 C-8.70997327 10.37116653 -10.42396233 9.07608045 -14.3125 8.5625 C-19.04192511 9.12361823 -20.77374577 10.54865826 -24 14 Z "
          fill="#000" transform="translate(408,350)"/>
    <path d="M0 0 C4.62 0 9.24 0 14 0 C14.85164775 8.07149895 15.13418437 15.9928416 15.09765625 24.10546875 C15.0962413 25.3106868 15.09482635 26.51590485 15.09336853 27.75764465 C15.08781771 31.56762281 15.07527459 35.37753992 15.0625 39.1875 C15.05747864 41.78710852 15.05291685 44.38671797 15.04882812 46.98632812 C15.03786444 53.32423921 15.02117606 59.66211524 15 66 C12.25494537 67.37252731 9.99672588 67.13229255 6.9375 67.125 C5.31134766 67.12886719 5.31134766 67.12886719 3.65234375 67.1328125 C1 67 1 67 0 66 C-0.09413687 63.94443339 -0.11742998 61.88559819 -0.11352539 59.82788086 C-0.11367142 59.18399918 -0.11381744 58.54011749 -0.1139679 57.87672424 C-0.11326885 55.73939697 -0.10547691 53.60215587 -0.09765625 51.46484375 C-0.09579204 49.98653715 -0.09436815 48.50822993 -0.09336853 47.02992249 C-0.08954359 43.13201198 -0.07971352 39.23413851 -0.06866455 35.33624268 C-0.05844992 31.36153667 -0.0538708 27.38682471 -0.04882812 23.41210938 C-0.03809122 15.60805404 -0.02049462 7.80403692 0 0 Z "
          fill="#000" transform="translate(326,329)"/>
    <path d="M0 0 C2.61419842 16.01196532 0.6833928 32.87925188 0 49 C-4.29 49 -8.58 49 -13 49 C-13.70364185 38.93540848 -14.10553397 28.90320196 -14.125 18.8125 C-14.12951172 17.84562256 -14.13402344 16.87874512 -14.13867188 15.88256836 C-14.12806601 10.81340507 -13.8706096 5.99564078 -13 1 C-8.61414671 0.29826347 -4.44209357 -0.10834375 0 0 Z "
          fill="#000" transform="translate(362,347)"/>
    <path d="M0 0 C1.00289063 0.10183594 2.00578125 0.20367187 3.0390625 0.30859375 C3.80992187 0.39238281 4.58078125 0.47617187 5.375 0.5625 C6.86584832 5.03504497 6.86584832 9.08995503 5.375 13.5625 C-1.06 14.0575 -1.06 14.0575 -7.625 14.5625 C-8.285 10.6025 -8.945 6.6425 -9.625 2.5625 C-8.965 2.5625 -8.305 2.5625 -7.625 2.5625 C-7.625 1.9025 -7.625 1.2425 -7.625 0.5625 C-4.89657939 -0.80171031 -3.01546682 -0.31557211 0 0 Z "
          fill="#000" transform="translate(356.625,328.4375)"/>
    <path d="M0 0 C0.33 0 0.66 0 1 0 C1 6.6 1 13.2 1 20 C1.66 20.33 2.32 20.66 3 21 C2.34 21 1.68 21 1 21 C0.67 22.32 0.34 23.64 0 25 C-0.78653402 21.59698245 -1.08116649 18.62008956 -0.87890625 15.13671875 C-0.83056641 14.25048828 -0.78222656 13.36425781 -0.73242188 12.45117188 C-0.67634766 11.53916016 -0.62027344 10.62714844 -0.5625 9.6875 C-0.51029297 8.75615234 -0.45808594 7.82480469 -0.40429688 6.86523438 C-0.2751852 4.57643647 -0.14024585 2.28813814 0 0 Z "
          fill="#000" transform="translate(64,114)"/>
</svg>
